<svg width="700pt" height="700pt" viewBox="0 0 700 700" xmlns="http://www.w3.org/2000/svg"><rect width="700" height="700" rx="100" ry="100" style="fill:#fff"/><path d="M559.664 327.776c-14.114 5.376-25.537 14.114-36.286 24.192-4.706 4.032-8.737 8.063-13.438 12.77-15.455 14.783-31.584 27.552-41.663 47.038-10.752 20.83-13.439 47.714-1.345 68.545 4.032 6.723 12.093 13.439 19.485 10.078 2.686-1.344 4.707-2.686 6.723-4.705 13.438-14.115 26.208-28.894 37.63-44.354 4.031-5.377 7.392-13.44 3.36-18.145-3.36-4.032-9.408-2.687-14.784-2.016.671-12.769 11.424-22.176 21.507-30.24 14.784-12.768 29.569-26.876 35.616-45.024 2.016-5.376 2.687-11.423-1.344-15.453-4.708-5.376-10.755-4.702-15.461-2.687zM151.76 257.888c-4.032-1.345-8.063 1.345-10.752 4.706-6.724 7.392-14.784 20.831-14.784 30.915 0 5.376 1.344 9.408 6.72 10.752 10.754 3.362 15.456-14.113 19.487-21.505 3.36-6.048 6.721-12.77 4.706-19.486-1.346-2.69-2.691-4.706-5.376-5.382zm22.176-1.344c1.345 1.345 4.706 1.345 6.722.67 2.016-1.346 3.36-2.686 4.706-4.706 2.686-3.36 6.048-7.392 6.722-12.093 6.042-24.192-30.248 4.032-18.15 16.128zm406.56-67.2c-20.161 4.032-33.6 13.439-39.647 34.945-2.016 6.723-.67 15.455 6.048 16.8 4.03.671 8.062-2.016 11.423-.67 5.376 2.686 1.344 11.423 3.36 17.471 2.016 4.706 8.738 6.722 13.44 4.706 4.705-2.016 8.736-6.047 11.423-10.078 7.392-10.078 14.114-21.506 19.485-32.93 2.686-5.375 4.707-10.752 4.707-16.8.674-21.51-16.795-16.133-30.24-13.443zm-284.256-54.43c-.67 0-2.016.671-2.686.671-20.16 4.705-21.506 16.128-34.272 30.915-2.685 3.36-9.408 11.424-13.437 4.705-8.739-14.784 14.114-37.631 22.847-46.368 8.061-8.064 18.144-20.163 29.568-20.163 10.754 0 20.162 8.064 14.784 18.816-3.365 6.048-10.083 9.404-16.804 11.424zM83.888 77.122c-2.686 8.063-4.706 16.8-2.686 25.538.67 2.016 1.344 3.36 2.686 4.706 3.36 2.016 8.063-.67 10.078-4.032 6.722-8.736 18.145-26.876 10.753-37.63-8.062-14.79-18.14 2.681-20.831 11.418zM645.68 321.728c-2.016 5.376-4.706 10.078-8.737 14.114-4.032 4.032-10.079 7.392-14.784 4.707-1.345-.671-2.016-1.345-2.016-2.016 0-.67 0-2.016.67-2.686 3.36-8.737 9.409-26.877 21.507-25.537 5.376-.005 4.706 7.382 3.36 11.418zM269.36 52.929c-1.345 7.392-.67 14.784 2.686 20.831 2.016 3.36 5.376 6.722 8.737 7.392 5.377 1.345 10.753-1.344 15.456-4.032 11.423-6.72 19.485-15.454 27.552-24.862l-54.43-.004zm383.04 0h-53.761c-2.016 5.376-4.707 11.424-7.392 16.13-9.408 15.454-26.208 23.522-36.286 38.306-4.032 6.048-8.063 12.769-9.408 20.161-1.345 7.392.671 15.455 6.048 20.83 9.407 9.409 24.862 5.377 36.285-.67 10.753-6.047 20.16-13.439 28.224-22.176 2.685-3.36 6.048-6.721 7.392-10.752 1.345-4.032 1.345-8.064 1.345-12.094 2.016-16.8 12.093-32.929 27.553-24.192zm-200.928 0-2.016 8.063c-1.344 5.376.67 12.094 5.376 15.455 6.722 4.032 18.146 0 22.848 6.721 2.016 2.016 2.016 5.376 2.686 8.064.67 4.705.67 9.407 2.685 14.113 2.016 5.376 4.032 8.737 6.723 10.079 12.093 8.062 22.846-34.945 25.537-40.992 2.685-6.722 6.048-13.44 9.408-20.832H451.47zm-221.76 40.318c-10.752 1.345-22.176 10.077-31.584 15.455-2.016 1.345-5.376 1.345-6.722-.671-.67-.67-.67-2.016 0-3.36 2.016-9.408 14.784-15.456 13.44-24.864-.672-6.046-7.392-10.078-13.44-10.078-6.047 0-11.424 3.361-16.8 6.723-36.96 24.192-64.515 61.824-100.128 88.706-4.032 2.686-10.08 5.376-13.44 2.016-2.016-2.016-1.344-6.048-3.36-8.064-2.016-2.686-5.376-2.686-8.739-2.015-.67 0-1.344 0-2.016.671v92.736c11.424-7.392 20.832-18.816 30.24-29.568 22.176-26.208 47.039-51.072 72.576-73.922 3.36-3.362 10.078-6.048 12.094-1.346.67 1.344.67 3.36 0 4.706-2.016 9.408-8.737 18.145-8.737 27.553 0 2.687.67 4.706 2.016 6.722 2.685 2.686 6.72 3.36 10.077 2.016 3.36-1.345 6.047-4.032 8.736-6.722 20.163-20.831 40.324-41.663 60.479-62.494 5.376-5.376 10.752-14.114 6.721-20.16-2.005-4.041-6.711-4.712-11.413-4.041zM72.464 288.8c-8.737-2.016-17.47 2.686-24.863 8.737v51.072c3.36-4.032 7.392-8.738 10.752-12.77 10.08-11.424 20.832-23.523 20.163-38.976 0-2.016-.671-4.032-2.016-5.376-.675-2.016-2.69-2.687-4.036-2.687zm336-185.47c-9.408 2.015-21.506 22.175-27.553 28.893-15.455 18.145-30.915 37.63-53.761 47.714-18.816 8.063-6.048-15.455-7.392-22.847-2.016-8.737-7.392-8.062-13.44-3.36-11.423 8.062-18.816 24.192-25.536 36.285-9.408 16.8-19.486 33.6-30.915 49.729-8.737 12.77-18.816 23.522-28.224 35.616-6.048 8.063-10.753 17.472-16.129 26.878-4.706 8.062-10.753 12.769-16.13 19.485-13.44 16.13-28.893 30.915-47.04 41.664-2.684 2.015-6.045 3.36-9.406 2.686-6.048-1.347-7.392-9.408-8.063-15.456-.67-6.047-3.36-14.115-10.077-13.439-2.686 0-4.707 2.016-6.723 4.032-6.721 6.721-12.768 13.439-18.144 20.83-8.738 12.769-15.456 26.209-24.192 38.977-6.048 8.737-12.095 16.8-19.487 24.192v60.477c4.707-4.706 9.408-10.077 14.784-14.784 2.016-2.016 4.707-4.706 8.063-4.706 6.048-.67 9.408 7.392 9.408 13.439-.67 6.048-3.361 12.769-2.016 18.816 2.016 8.737 13.44 13.439 22.848 10.752 8.736-2.015 16.128-9.407 22.176-16.128C176.62 431.25 204.17 349.267 260.62 289.459c5.376-6.048 12.093-12.094 20.16-12.77 11.424-1.345 10.079 7.393 16.8 11.425 5.376 4.03 13.44.67 19.486-2.687 12.769-7.392 22.848-20.831 30.914-33.6 13.44-20.16 23.523-42.336 34.945-63.168s25.538-38.976 33.6-61.824c5.381-11.416 7.397-26.87-8.062-23.508zM329.17 238.4c-2.685 4.707-5.376 10.078-9.408 13.439-1.344.67-2.016 2.016-4.032 2.016-2.684 0-4.03-3.361-3.36-5.376.671-2.016 2.016-4.708 2.686-7.393 2.016-6.723-1.344-26.878 11.424-24.863 10.752 1.345 6.052 16.13 2.69 22.176zM61.04 640.928c2.686-28.894 16.13-58.463 6.722-85.345-.67-3.36-2.686-6.048-5.376-7.392-4.707-2.016-9.408 1.344-12.77 4.706l-2.016 2.015v102.816h16.8c-3.36-4.037-4.03-11.424-3.36-16.8zm229.824-285.6c-7.392 2.686-12.77 9.408-17.47 15.455-14.115 18.145-24.864 38.976-36.962 58.463-36.961 58.462-89.376 107.522-118.945 170.016-5.376 12.093-10.752 24.862-17.471 36.285-4.032 6.723-10.752 16.8-18.145 21.507h76.608l.67-.671c10.753-12.768 21.507-25.536 27.553-40.323 2.016-6.046 4.032-12.093 2.016-18.144-2.016-6.048-9.408-10.078-14.784-7.392-2.686-5.377-1.344-11.424 1.345-16.13 2.687-4.706 7.392-8.737 11.424-12.768 36.96-36.287 61.152-83.33 97.439-119.616 9.408-9.408 20.16-18.816 28.893-28.895 9.408-11.424 14.784-23.522 11.424-38.976-3.353-13.434-22.173-23.517-33.596-18.811z"/><path d="M497.168 297.536c-6.048-.67-11.424-5.376-12.77-11.424-.67-3.36 0-7.392-2.685-10.078-2.016-2.685-6.722-2.685-10.079-2.016-2.016 0-4.032.671-6.046.671-2.686-.67-12.094-7.392-12.094-9.408-.67-2.016.67-4.032 1.345-6.047 5.376-10.077 14.115-17.47 22.176-24.862 8.739-7.392 17.472-14.115 24.192-23.523 6.048-8.063 11.424-22.847 6.723-32.928-8.063-16.13-32.256 6.046-39.648 12.768-26.208 24.192-52.416 48.384-78.624 71.907-12.093 11.424-25.536 23.522-29.568 40.322-2.686 10.078.67 23.522 10.752 26.878 9.408 3.36 43.678-20.16 45.024-2.016 0 2.686-.67 6.048-2.015 8.738-27.552 70.56-101.471 104.83-136.416 170.016-4.032 8.062-7.392 18.816-.67 24.863 2.686 2.016 6.721 3.36 10.078 3.36 8.737 1.345 18.144.67 27.552-.67 5.377-1.345 12.77-2.687 16.13 2.016 4.707 6.047-1.345 14.115-7.392 19.486-30.24 26.208-60.477 52.416-91.392 78.624-8.737 7.392-17.472 15.455-24.864 24.192H311.71c6.721-4.707 12.094-10.079 14.784-17.472 4.707-14.113 18.144-16.8 26.878-26.877 10.077-12.093 20.16-22.848 31.584-33.6 16.8-17.472 32.255-36.96 45.693-57.122 4.707-7.392 9.408-18.816 2.686-24.864-2.016-2.016-5.376-2.686-8.737-3.36-8.063-.67-15.456.67-23.523 1.344-8.062 0-16.8-2.015-20.832-8.062-14.113-20.16 15.456-40.992 24.864-55.776 14.115-21.506 30.915-39.646 49.728-57.122 15.456-14.784 31.584-28.224 45.024-45.024 4.708-6.048 12.77-15.455 10.755-24.863-1.356-9.417-6.732-7.401-13.449-8.072zm56.448 194.208c-2.016-1.345-4.706-1.345-6.722-.67-10.078 2.015-16.128 12.093-20.831 21.506-6.047 10.753-12.094 21.506-18.816 32.256-6.047 9.408-6.047-9.408-7.392-11.424-2.686-5.376-6.047-7.392-12.768-6.048-9.408 2.016-16.8 6.722-23.524 14.115-31.584 33.6-53.76 74.592-74.592 116.255h59.808c1.345-2.016 2.687-4.032 4.032-6.722 5.376-9.408 11.424-18.816 20.831-22.847 1.344-.67 3.36-1.344 4.706 0 1.344.67 1.344 2.016 2.016 3.361 2.015 4.032 6.046 6.048 10.752 5.376 14.115-2.016 17.472-27.552 21.507-37.63 10.753-23.522 23.522-46.369 34.272-69.885 4.03-8.064 8.061-16.13 9.407-24.864 2.02-4.716 1.345-10.092-2.686-12.777zM652.4 366.08c-3.36 4.032-7.392 8.063-11.424 12.094-12.768 13.438-46.368 36.96-44.352 58.462 1.344 9.408 8.062 12.77 16.128 13.44 9.408.67 22.848-6.723 24.192 6.047 2.016 16.8-3.36 32.254-12.768 46.368-10.753 16.13-23.522 31.584-26.878 50.4-.672 2.686-.672 6.048 0 8.737 1.344 4.032 4.706 6.723 7.392 10.08 9.408 11.423 7.392 28.893 1.344 43.007-6.045 14.115-14.784 26.878-17.47 41.663v2.016h25.537c15.456-10.753 28.224-25.538 37.632-41.664l-.005-250.656zm0-158.592c-6.048 13.439-13.439 25.537-19.486 38.976-2.685 5.376-4.706 12.094-2.016 16.8 4.032 6.048 12.77 5.376 18.816 2.016.671-.67 1.346-.67 2.687-1.345zM360.752 63.678c-2.686 7.392-5.376 14.114-11.424 19.485-2.686 2.016-5.376 4.707-5.376 8.063-.67 4.706 6.048 8.063 10.752 6.721 4.708-1.344 8.064-5.376 12.095-8.736 5.376-6.048 12.093-10.754 19.485-14.115 4.707-2.686 10.078-4.707 14.115-8.738 3.36-3.36 6.047-8.737 5.376-13.438H366.8c-2.686 3.366-4.706 6.727-6.047 10.758z"/></svg>
