<?xml version="1.0" encoding="UTF-8"?>
<svg width="700pt" height="700pt" version="1.1" viewBox="0 0 700 700" xmlns="http://www.w3.org/2000/svg" xmlns:xlink="http://www.w3.org/1999/xlink">
  <defs/>
  <g>
    <rect x="0" y="0" width="700" height="700" rx="250" ry="250" style="fill:white"/>
    <path d="m304.18 526.86c-1.2305-0.36328-1.9336-1.6602-1.5664-2.9023 0.36328-1.2305 1.6602-1.9336 2.9023-1.5664 9.7148 2.9023 20.973 4.8516 31.52 5.4492 9.7891 0.55859 18.93-0.039062 25.582-2.1094 1.2305-0.38281 2.5391 0.29688 2.9219 1.5312 0.38281 1.2305-0.29688 2.5391-1.5312 2.9219-7.207 2.2383-16.91 2.9023-27.227 2.3164-10.922-0.625-22.551-2.6328-32.594-5.6367zm225.32-381.96c-0.85938 0.95312-2.3242 1.0352-3.2852 0.1875-0.95312-0.85938-1.0352-2.3242-0.1875-3.2852 4.0781-4.5469 11.191-7.2812 18.891-7.9258 7.4766-0.61719 15.613 0.71094 22.102 4.2656 1.1289 0.61719 1.5391 2.0352 0.92578 3.1641-0.61719 1.1289-2.0352 1.5391-3.1641 0.92578-5.6484-3.0977-12.832-4.2461-19.48-3.6953-6.5977 0.55078-12.562 2.7539-15.812 6.375zm-7.0273 92.613c9.0898 4.2578 18.977 6.1523 28.766 5.7227 15.734-0.67969 31.203-7.375 42.68-19.891l0.11328-0.12109-0.007812-0.007813c0.039062-0.039062 0.085937-0.074218 0.12109-0.12109 11.219-12.367 16.465-28.074 15.895-43.566-0.33594 1.9336-0.76562 3.8633-1.2695 5.7695-3.9297 14.672-12.918 28.484-25.191 38.492-2.7344 2.2305-5.6289 4.2656-8.6719 6.0859-8.6328 5.1602-17.93 8.2148-27.309 9.3164-8.457 0.98828-16.977 0.39062-25.125-1.6797zm-279.79-74.984c-11.078-12.891-12.113-27.562-6.4023-41.18 3.2461-7.7461 8.7461-15.121 15.848-21.543 7.0078-6.3477 15.566-11.77 25.051-15.727 27.898-11.637 63.953-10.781 92.121 16.418 14.41-4.125 29.586-5.7031 44.902-4.7422 30.203 1.9023 60.984 13.691 87.594 35.344 12.34-11.414 27.934-17.527 43.766-18.219 17.508-0.76562 35.309 5.1133 49.309 17.809 0.14062 0.10156 0.28125 0.22266 0.41016 0.35547l-0.007813 0.007813c1.2305 1.1289 2.4062 2.2969 3.5391 3.5l0.019531-0.019532 0.23438 0.28125c11.527 12.367 17.707 28.047 18.406 43.961 0.76562 17.508-5.1133 35.309-17.809 49.309-0.10156 0.14062-0.22266 0.28125-0.35547 0.41016l-0.007813-0.007812c-8.1953 8.9023-18.199 15.156-28.926 18.723 0.84766 3.6484 1.625 7.3164 2.3242 10.977 0.83203 4.3672 1.5664 8.793 2.2031 13.262 2.3438 16.492 3.0508 32.852 2.2773 48.914-2.0078 41.523-13.926 80.949-33.078 115.49 7.543 8.8125 15.645 25.379 17.863 42.074 0.98828 7.4297 0.83984 14.934-1.0078 21.859-1.8945 7.1211-5.5547 13.625-11.555 18.824-6.3281 5.4883-15.215 9.4648-27.32 11.078-3.9492 0.52344-8.3438 1.2969-12.617 2.6055-4.1172 1.2617-8.1562 3.0234-11.562 5.582-8.1367 6.0859-9.7344 12.77-11.031 18.219-0.16016 0.67969-0.31641 1.3438-0.60547 2.4453-2.4453 9.3164-7.9336 16.184-15.148 20.824-7.8203 5.0312-17.668 7.3633-27.785 7.2695-9.9883-0.09375-20.301-2.5586-29.215-7.1289-9.707-4.9766-17.797-12.461-22.148-22.129-6.8125 1.6992-13.711 3.0508-20.684 4.043-12.281 1.7461-24.797 2.3633-37.445 1.7539-0.57031-0.027344-1.0156-0.046876-1.3516-0.066407-43.812-2.4922-93.184-23.652-131-55.711-38.051-32.246-64.539-75.59-62.289-122.25 0.019532-0.44922 0.039063-0.77344 0.046875-0.98828 0.59766-10.527 3.2031-20.746 7.7656-30.203-0.69922-1.1094-1.3906-2.3711-2.0234-3.6484-1.5391-3.125-2.8555-6.5234-3.3125-7.9805-1.5039-4.7891-2.7617-9.6602-3.7617-14.605-0.96875-4.8164-1.6992-9.8203-2.1758-15-3.5742-38.855 8.9336-75.488 32.051-103.29 18.883-22.707 44.836-39.535 74.891-46.898zm118.49-59.406c-25.211-22.082-56.605-22.398-81.133-12.16-8.7266 3.6406-16.559 8.5977-22.922 14.355-6.2734 5.6758-11.105 12.152-13.953 18.918-5.0664 12.078-3.5469 25.238 8.0547 36.484 4.0312-0.72656 8.1289-1.2891 12.293-1.6719 6.7109-0.61719 13.348-0.75781 19.863-0.44922 5.9648 0.28906 11.844 0.94141 17.602 1.9492 4.2578-12.449 12.16-25.172 25.453-38.051l0.17578-0.17578 0.11328-0.085937c10.547-8.3086 22.168-14.68 34.449-19.113zm38.098 452.29c3.7227 7.5117 10.332 13.422 18.227 17.473 7.8945 4.0508 17.035 6.2344 25.891 6.3203 8.7266 0.085937 17.125-1.875 23.707-6.1055 5.7031-3.668 10.035-9.1016 11.965-16.445 0.11328-0.41016 0.32812-1.3242 0.55078-2.2695 1.5859-6.6367 3.5273-14.773 13.832-22.484 4.1328-3.0977 8.9688-5.2188 13.871-6.7188 4.75-1.457 9.5469-2.2969 13.812-2.8672 10.527-1.4102 18.125-4.7422 23.406-9.332 4.7695-4.1328 7.6914-9.3516 9.2227-15.094 1.5859-5.9453 1.6992-12.469 0.83203-18.992-1.8672-13.98-8.1758-27.793-14.465-36.102-8.0156 13.496-17.145 26.188-27.227 37.902-30.68 35.633-70.148 62.199-113.63 74.723zm-132.12-388.79c-0.29688-0.085937-0.57031-0.20703-0.82031-0.34375-0.71094 0.054688-1.4297 0.11328-2.1367 0.17578-10.191 0.94141-20 2.9961-29.344 6.0391l62.031 17.789c-0.20703-4.9297-0.039062-9.9102 0.63281-14.961l-30.352-8.707zm30.035 0.84766 1.6719 0.47656 0.046876-0.19531c-0.57031-0.09375-1.1367-0.1875-1.7188-0.28125zm0.34375 30.762-74.34-21.316c-6.4688 2.8008-12.656 6.0938-18.516 9.8281l95.816 27.477c-1.2617-5.2344-2.2969-10.574-2.9492-15.988zm5.1523 24.379-105.97-30.391c-4.6953 3.4922-9.1484 7.2695-13.328 11.32l124.32 35.652c-0.22266-0.71875-0.44922-1.4453-0.67188-2.1641-1.4648-4.7031-2.957-9.5117-4.3398-14.41zm13.57 19.031 0.046875 0.019531-0.019531 0.074219c6.5039 21.41 10.734 40.59-2.2227 57.074l-0.20703 0.23438c-24.875 26.664-45.453 21.578-66.035 16.5-9.3711-2.3164-18.742-4.6289-28.234-3.4453v0.007813c-22.25 3.9648-39.547 13.066-51.699 25.211-13.066 13.059-20.227 29.68-21.223 47.254-0.027344 0.42188-0.039063 0.73828-0.046875 0.92578-2.1289 44.102 23.238 85.344 59.66 116.21 36.645 31.062 84.355 51.559 126.6 53.965 0.55078 0.027344 0.98047 0.054687 1.2969 0.066406 12.152 0.58984 24.203-0.007812 36.047-1.6992 52.594-7.4766 101-36.398 137.01-78.223 36.062-41.887 59.641-96.676 62.496-155.8 0.75781-15.578 0.066406-31.461-2.2227-47.516-0.63281-4.4336-1.3438-8.7461-2.1367-12.938-0.67969-3.5742-1.4102-7.0391-2.1758-10.387-3.8281 0.83203-7.7188 1.3242-11.629 1.5039-16.902 0.73828-34.074-4.7148-47.832-16.512-4.4609 0.28906-7.9141 1.7266-10.555 4.0117-2.8672 2.4922-4.8828 6.0742-6.2344 10.371-1.9023 6.0586-2.4727 13.43-2.2227 21.195 0.32812 10.203-2.0898 20.328-6.9727 29.277-4.7227 8.6523-11.742 16.184-20.805 21.598-8.6328 5.1602-18.098 7.7734-27.496 8.0625-9.7344 0.29688-19.395-1.9023-28.02-6.3555-5.832-3.0156-11.629-7.7734-16.52-13.289s-8.9336-11.863-11.238-18.031c-3.707-9.9023-4.582-20.645-2.5859-30.957 1.9414-9.9883 6.5703-19.582 13.961-27.645 7.1406-7.7852 15.934-13.141 25.359-16.023 9.7422-2.9766 20.152-3.3047 30.07-0.92578 7.5586 1.8125 14.906 2.7422 21.215 2.1016 4.4688-0.45703 8.3906-1.707 11.414-4.0234 2.9492-2.2578 5.1328-5.6094 6.2734-10.34 0.92578-3.8633 1.168-8.6328 0.57812-14.438-0.98047-9.6055 0.066406-19.414 3.1562-28.719 2.8008-8.4453 7.2891-16.484 13.477-23.574-25.246-20.375-54.328-31.48-82.844-33.273-29.727-1.8672-58.836 6.3945-82.293 24.816-38.816 37.742-27.281 74.777-17.312 106.8 0.71875 2.3047 1.4297 4.582 2.1094 6.8398zm-5.9844 6.0469-132.78-38.078c-1.3633 1.4922-2.6875 3.0234-3.9844 4.5742-2.082 2.5-4.0586 5.0664-5.9531 7.7188l146.56 42.027c-0.82031-5.1875-2.2109-10.621-3.8438-16.238zm4.6289 24.23-151.72-43.512c-2.6523 4.2109-5.0781 8.5664-7.2539 13.059l156.73 44.949c1.7656-4.5273 2.3984-9.3789 2.2383-14.496zm-5.8984 21.207-156.18-44.789c-1.8672 4.4688-3.4922 9.0547-4.8633 13.746l148.18 42.496c3.9297-2.6133 7.9609-6.0391 12.125-10.473 0.25391-0.32813 0.49609-0.65234 0.72656-0.98047zm-22.598 16.418-140.34-40.246c-1.1016 4.7227-1.9492 9.5312-2.5391 14.41l72.801 20.879-0.16016 0.57031c0.71094-0.14062 1.4297-0.26953 2.1484-0.40234l0.17578-0.019531c10.938-1.418 21.027 1.0742 31.117 3.5664 11.957 2.9492 23.91 5.8984 36.801 1.2305zm-83.523-1.0547-60.043-17.219c-0.30859 4.9844-0.34375 10.023-0.09375 15.109l39.012 11.191c6.3555-3.6133 13.402-6.6719 21.129-9.082zm-29.492 14.438-30.008-8.6055c0.4375 3.9844 1.0547 7.9688 1.8555 11.938 0.26953 1.3359 0.55078 2.6602 0.85938 3.9766l14.316 4.1055c0.72656-0.78516 1.4648-1.5586 2.2305-2.3164 3.2461-3.2461 6.832-6.2891 10.742-9.1016zm-18.219 17.676-6.8398-1.9609c0.14844 0.49609 0.29688 0.98047 0.45703 1.4766 0.35547 1.1211 1.3164 3.6211 2.4922 6.1133 1.2031-1.9219 2.5-3.7969 3.8906-5.6289zm217.45 240.06c2.25-1.168 4.4688-2.3906 6.6719-3.6406l-3.6953-6.4883c-2.1289 1.2031-4.2656 2.3789-6.4297 3.5078l3.4531 6.6172zm-284.01-225.18c-0.625 2.4648-1.1953 4.9297-1.7266 7.4102l7.3086 1.5508c0.51172-2.3906 1.0625-4.7695 1.6602-7.1289l-7.2422-1.8281zm-6.0742 45.156-0.019532 0.86719-0.019531 1.2617-0.007813 1.2617v1.2617l0.007813 1.2617 0.019531 1.2617 0.007813 0.4375 7.4648-0.16797-0.007812-0.39062-0.019531-1.2148-0.007813-1.2148v-1.2148l0.007813-1.2148 0.019531-1.2148 0.019531-0.86719-7.4648-0.12109zm4.3125 45.359 0.22266 1.0547 0.26172 1.1953 0.26953 1.1836 0.28125 1.1836 0.57812 2.3672 0.11328 0.42188 7.2344-1.8672-0.09375-0.38281-0.5625-2.2734-0.26953-1.1367-0.26172-1.1367-0.25391-1.1484-0.22266-1.0547-7.2891 1.5977zm14.59 43.137 0.57031 1.1836 0.52344 1.0742 1.0625 2.1484 0.54297 1.0625 0.55078 1.0625 0.14844 0.28906 6.6094-3.4727-0.12891-0.24219-1.0469-2.0547-0.51172-1.0273-0.51172-1.0352-0.50391-1.0352-0.55078-1.1484-6.7461 3.1914zm24.062 38.707 0.61719 0.77344 0.74609 0.92578 0.75781 0.92578 0.75781 0.91406 0.76562 0.91406 0.76563 0.90625 0.42969 0.50391 5.6562-4.8711-0.40234-0.46484-1.4766-1.7578-1.4531-1.7734-0.71875-0.89453-0.61719-0.77344-5.8242 4.668zm32.199 32.219 0.50391 0.40234 1.8828 1.4766 0.95312 0.72656 0.95312 0.71875 0.96094 0.71875 0.78516 0.57812 4.4062-6.0312-0.74609-0.55078-1.8516-1.3828-0.91406-0.69922-0.91406-0.71094-0.90625-0.71094-0.50391-0.40234-4.6289 5.8633zm38.695 24.051 0.67188 0.31641 1.1016 0.51172 1.1094 0.50391 2.2188 0.99219 1.1211 0.48438 0.71094 0.30859 2.9023-6.8789-0.67188-0.28906-1.0742-0.46484-1.0742-0.47656-1.0625-0.47656-1.0625-0.48438-1.0625-0.49609-0.67188-0.31641zm43.176 14.531 0.69141 0.14844 1.2305 0.25391 1.2305 0.24219 1.2305 0.23437 1.2422 0.23438 1.2422 0.22266 0.60547 0.10156 1.25-7.3633-0.55859-0.09375-1.1953-0.21484-1.1953-0.22266-2.3672-0.46875-1.1836-0.24219-0.69141-0.14844-1.5195 7.3086zm45.34 4.3398c2.5391-0.046875 5.0664-0.14062 7.5977-0.28125l-0.42188-7.457c-2.4453 0.14062-4.8828 0.22266-7.3281 0.26953l0.14844 7.4648zm45.156-6.0664c2.4531-0.625 4.8984-1.2969 7.3359-2.0156l-2.1289-7.1602c-2.3438 0.69141-4.6953 1.3438-7.0664 1.9414l1.8555 7.2344zm263.29-457.35c-1.0273-1.082-2.0898-2.1367-3.2109-3.1641l-0.12109-0.11328-0.007812 0.007812c-0.039062-0.039062-0.074219-0.085938-0.12109-0.12109-12.488-11.32-28.375-16.559-44.008-15.875-15.734 0.67969-31.203 7.375-42.68 19.891l-0.11328 0.12109 0.007813 0.007813c-0.046876 0.046874-0.085938 0.085937-0.12891 0.12109-5.9375 6.5508-10.203 14.027-12.816 21.914-2.7539 8.2969-3.6758 17.051-2.8008 25.656 0.67188 6.6445 0.36328 12.227-0.74609 16.895-1.5664 6.543-4.7148 11.273-8.9883 14.543-4.1914 3.2109-9.3984 4.918-15.215 5.5156-7.1875 0.72656-15.352-0.28125-23.668-2.2773-8.6445-2.0703-17.707-1.793-26.188 0.80078-8.1836 2.5-15.828 7.1602-22.035 13.926-6.4102 6.9922-10.434 15.336-12.125 24.023-1.7461 8.9961-0.98828 18.359 2.2305 26.965 1.9883 5.3008 5.5156 10.828 9.8359 15.699 4.3008 4.8516 9.3438 9.0078 14.363 11.602 7.5117 3.8828 15.934 5.7969 24.406 5.543 8.1562-0.25391 16.371-2.5195 23.875-7.0078 7.8867-4.7148 13.992-11.266 18.09-18.77 4.2461-7.7852 6.3555-16.605 6.0664-25.48-0.28125-8.5508 0.38281-16.762 2.5469-23.652 1.7461-5.5625 4.4805-10.312 8.4844-13.785 4.0703-3.5273 9.3242-5.6484 16.043-5.8633 4.7969-0.16016 10.332 0.67188 16.707 2.668 8.2422 2.5859 17.004 3.4453 25.703 2.4258 8.3633-0.98047 16.641-3.707 24.332-8.2969 2.7344-1.6328 5.3398-3.4609 7.8008-5.4688 11.051-9.0078 19.152-21.438 22.68-34.637 3.4805-13.012 2.4922-26.738-4.5625-38.547-1.0742-1.8008-2.2969-3.5547-3.6602-5.2656z"/>
  </g>
</svg>
